<svg width="24" height="24" viewBox="0 0 24 24" fill="none" xmlns="http://www.w3.org/2000/svg">
<path d="M23.7152 17.4123L20.2507 14.6377V9.74847C20.2499 7.69117 19.4803 5.70844 18.093 4.1893C16.7056 2.67016 14.8007 1.72429 12.7519 1.53726V0H11.2521V1.53726C9.20336 1.72429 7.29842 2.67016 5.91108 4.1893C4.52374 5.70844 3.75415 7.69117 3.75332 9.74847V14.6377L0.288862 17.4123C0.200485 17.4821 0.128976 17.571 0.079644 17.6722C0.0303123 17.7735 0.00442553 17.8845 0.00390625 17.9972L0.00390625 20.2468C0.00390625 20.4457 0.0829115 20.6364 0.223542 20.7771C0.364172 20.9177 0.554908 20.9967 0.753789 20.9967H8.3276C8.49971 21.8443 8.95955 22.6063 9.6292 23.1537C10.2989 23.701 11.1371 24 12.002 24C12.8669 24 13.7052 23.701 14.3748 23.1537C15.0445 22.6063 15.5043 21.8443 15.6765 20.9967H23.2503C23.4491 20.9967 23.6399 20.9177 23.7805 20.7771C23.9211 20.6364 24.0001 20.4457 24.0001 20.2468V17.9972C23.9996 17.8845 23.9737 17.7735 23.9244 17.6722C23.8751 17.571 23.8036 17.4821 23.7152 17.4123ZM12.002 22.4965C11.5379 22.4952 11.0855 22.3503 10.7069 22.0818C10.3283 21.8133 10.0421 21.4343 9.88736 20.9967H14.1092C13.9549 21.4331 13.6698 21.8113 13.2927 22.0797C12.9156 22.3481 12.4649 22.4936 12.002 22.4965ZM22.5004 19.4969H1.50367V18.3571L4.76566 15.7475H16.5013V14.2478H5.25308V9.74847C5.25308 7.95854 5.96413 6.24192 7.2298 4.97625C8.49548 3.71058 10.2121 2.99953 12.002 2.99953C13.792 2.99953 15.5086 3.71058 16.7743 4.97625C18.0399 6.24192 18.751 7.95854 18.751 9.74847V14.9977C18.7515 15.1103 18.7774 15.2214 18.8267 15.3226C18.876 15.4239 18.9475 15.5127 19.0359 15.5826L22.5004 18.3571V19.4969Z" fill="#385369"/>
</svg>
