<svg width="20" height="20" viewBox="0 0 20 20" fill="none" xmlns="http://www.w3.org/2000/svg">
<path d="M1.73131 4.30108H3.23669V16.9892C3.23669 17.7877 3.55389 18.5535 4.11851 19.1182C4.68314 19.6828 5.44894 20 6.24744 20H14.8496C15.6481 20 16.4139 19.6828 16.9785 19.1182C17.5431 18.5535 17.8603 17.7877 17.8603 16.9892V4.30108H18.9356C19.1638 4.30108 19.3826 4.21045 19.5439 4.04912C19.7052 3.8878 19.7958 3.669 19.7958 3.44086C19.7958 3.21272 19.7052 2.99392 19.5439 2.8326C19.3826 2.67127 19.1638 2.58065 18.9356 2.58065H14.6345C14.6345 1.89622 14.3626 1.23982 13.8787 0.755853C13.3947 0.271889 12.7383 0 12.0539 0H9.04314C8.35871 0 7.70231 0.271889 7.21834 0.755853C6.73438 1.23982 6.46249 1.89622 6.46249 2.58065H1.73131C1.50317 2.58065 1.28437 2.67127 1.12304 2.8326C0.961723 2.99392 0.871094 3.21272 0.871094 3.44086C0.871094 3.669 0.961723 3.8878 1.12304 4.04912C1.28437 4.21045 1.50317 4.30108 1.73131 4.30108ZM16.1399 4.30108V16.9892C16.1399 17.3315 16.004 17.6597 15.762 17.9016C15.52 18.1436 15.1918 18.2796 14.8496 18.2796H6.24744C5.90522 18.2796 5.57702 18.1436 5.33504 17.9016C5.09306 17.6597 4.95712 17.3315 4.95712 16.9892V4.30108H16.1399ZM9.04314 1.72043H12.0539C12.282 1.72043 12.5008 1.81106 12.6622 1.97238C12.8235 2.1337 12.9141 2.3525 12.9141 2.58065H8.18292C8.18292 2.3525 8.27355 2.1337 8.43487 1.97238C8.59619 1.81106 8.81499 1.72043 9.04314 1.72043Z" fill="#D72323"/>
<path d="M10.5485 7.52688C10.3204 7.52688 10.1016 7.61751 9.94025 7.77883C9.77893 7.94015 9.6883 8.15895 9.6883 8.3871V16.129C9.6883 16.3572 9.77893 16.576 9.94025 16.7373C10.1016 16.8986 10.3204 16.9892 10.5485 16.9892C10.7767 16.9892 10.9955 16.8986 11.1568 16.7373C11.3181 16.576 11.4087 16.3572 11.4087 16.129V8.3871C11.4087 8.15895 11.3181 7.94015 11.1568 7.77883C10.9955 7.61751 10.7767 7.52688 10.5485 7.52688Z" fill="#D72323"/>
<path d="M12.699 8.3871V16.129C12.699 16.3572 12.7897 16.576 12.951 16.7373C13.1123 16.8986 13.3311 16.9892 13.5593 16.9892C13.7874 16.9892 14.0062 16.8986 14.1675 16.7373C14.3289 16.576 14.4195 16.3572 14.4195 16.129V8.3871C14.4195 8.15895 14.3289 7.94015 14.1675 7.77883C14.0062 7.61751 13.7874 7.52688 13.5593 7.52688C13.3311 7.52688 13.1123 7.61751 12.951 7.77883C12.7897 7.94015 12.699 8.15895 12.699 8.3871Z" fill="#D72323"/>
<path d="M7.53776 7.52688C7.30962 7.52688 7.09082 7.61751 6.9295 7.77883C6.76817 7.94015 6.67755 8.15895 6.67755 8.3871V16.129C6.67755 16.3572 6.76817 16.576 6.9295 16.7373C7.09082 16.8986 7.30962 16.9892 7.53776 16.9892C7.7659 16.9892 7.9847 16.8986 8.14602 16.7373C8.30735 16.576 8.39797 16.3572 8.39797 16.129V8.3871C8.39797 8.15895 8.30735 7.94015 8.14602 7.77883C7.9847 7.61751 7.7659 7.52688 7.53776 7.52688Z" fill="#D72323"/>
</svg>
