<svg width="21" height="20" viewBox="0 0 21 20" fill="none" xmlns="http://www.w3.org/2000/svg">
<path d="M2.81437 20H16.7569C17.0827 20 17.4053 19.9358 17.7063 19.8112C18.0073 19.6865 18.2808 19.5037 18.5111 19.2734C18.7415 19.043 18.9242 18.7695 19.0489 18.4685C19.1736 18.1675 19.2378 17.8449 19.2378 17.5191V12.2597C19.2378 11.9965 19.1332 11.7441 18.9471 11.558C18.761 11.3719 18.5086 11.2673 18.2454 11.2673C17.9822 11.2673 17.7298 11.3719 17.5437 11.558C17.3576 11.7441 17.2531 11.9965 17.2531 12.2597V17.5191C17.2531 17.6507 17.2008 17.7769 17.1077 17.87C17.0147 17.963 16.8885 18.0153 16.7569 18.0153H2.81437C2.68278 18.0153 2.55657 17.963 2.46352 17.87C2.37047 17.7769 2.3182 17.6507 2.3182 17.5191V3.5766C2.3182 3.44501 2.37047 3.3188 2.46352 3.22575C2.55657 3.1327 2.68278 3.08043 2.81437 3.08043H8.07383C8.33702 3.08043 8.58942 2.97587 8.77553 2.78977C8.96163 2.60367 9.06618 2.35126 9.06618 2.08808C9.06618 1.82489 8.96163 1.57248 8.77553 1.38638C8.58942 1.20028 8.33702 1.09573 8.07383 1.09573H2.81437C2.1564 1.09573 1.52538 1.3571 1.06013 1.82236C0.594873 2.28761 0.333496 2.91863 0.333496 3.5766V17.5191C0.333496 18.1771 0.594873 18.8081 1.06013 19.2734C1.52538 19.7386 2.1564 20 2.81437 20Z" fill="#8280FF"/>
<path d="M18.3695 0.723594C17.9005 0.259995 17.2676 0 16.6081 0C15.9486 0 15.3157 0.259995 14.8466 0.723594L6.28762 9.28261L5.69221 12.9295C5.64999 13.1644 5.66394 13.406 5.73293 13.6346C5.80191 13.8631 5.92398 14.072 6.08915 14.2444C6.37844 14.5151 6.75974 14.6658 7.15593 14.6661H7.40402L11.0509 14.0707L19.6099 5.48687C20.0735 5.01784 20.3335 4.38494 20.3335 3.72545C20.3335 3.06597 20.0735 2.43307 19.6099 1.96403L18.3695 0.723594ZM16.9554 2.13769L18.1958 3.37813C18.2663 3.44787 18.3154 3.53628 18.3374 3.63295C18.3593 3.72963 18.3533 3.83057 18.3199 3.92392L16.4096 2.01365H16.6081C16.6716 2.00667 16.7358 2.0142 16.796 2.03569C16.8562 2.05718 16.9107 2.09206 16.9554 2.13769ZM10.1082 12.1852L7.75134 12.5822L8.14828 10.2253L14.9707 3.40294L16.9306 5.36283L10.1082 12.1852Z" fill="#8280FF"/>
</svg>
