<svg width="24" height="25" viewBox="0 0 24 25" fill="none" xmlns="http://www.w3.org/2000/svg">
<path d="M9.4192 19.2296H14.5808C16.3597 19.2296 17.7886 17.8006 17.7886 16.0218V9.54791C17.7886 7.76905 16.3597 6.34013 14.5808 6.34013H9.4192C7.64034 6.34013 6.21143 7.76905 6.21143 9.54791V15.9926C6.21143 17.7715 7.64034 19.2296 9.4192 19.2296ZM7.72783 9.54791C7.72783 8.61474 8.48603 7.85653 9.4192 7.85653H14.5808C15.514 7.85653 16.2722 8.61474 16.2722 9.54791V15.9926C16.2722 16.9258 15.514 17.684 14.5808 17.684H9.4192C8.48603 17.684 7.72783 16.9258 7.72783 15.9926V9.54791Z" fill="#707070"/>
<path d="M21.4338 4.7654C21.6087 4.35714 21.7254 3.91972 21.7254 3.45313C21.7254 1.7326 20.3256 0.33284 18.6051 0.33284C16.8846 0.33284 15.4848 1.7326 15.4848 3.45313C15.4848 5.17367 16.8846 6.57342 18.6051 6.57342C19.1592 6.57342 19.6549 6.42761 20.0923 6.16516C21.3463 7.88569 22.0462 9.98533 22.0462 12.1141C22.0462 17.6548 17.5261 22.1749 11.9854 22.1749C6.44471 22.1749 1.92467 17.684 1.92467 12.1433C1.92467 9.81036 2.71203 7.62324 4.17011 5.81522C4.31592 5.64025 4.4034 5.43612 4.4034 5.20283C4.4034 4.67792 3.96598 4.24049 3.44107 4.24049C3.12029 4.24049 2.85784 4.3863 2.68287 4.6196C0.962333 6.71923 0 9.4021 0 12.1433C0 18.763 5.36573 24.1287 11.9854 24.1287C18.6051 24.1287 24 18.763 24 12.1433C24 9.46042 23.0668 6.86504 21.4338 4.7654ZM18.6051 4.79456C17.8761 4.79456 17.2928 4.21133 17.2928 3.48229C17.2928 2.75325 17.8761 2.17002 18.6051 2.17002C19.3341 2.17002 19.9174 2.75325 19.9174 3.48229C19.9174 4.21133 19.3341 4.79456 18.6051 4.79456Z" fill="#707070"/>
<path d="M10.0024 10.7727H12.7144C13.0935 10.7727 13.3851 10.4519 13.3851 10.102C13.3851 9.72287 13.0644 9.43126 12.7144 9.43126H10.0024C9.62329 9.43126 9.33168 9.75204 9.33168 10.102C9.30252 10.4519 9.62329 10.7727 10.0024 10.7727Z" fill="#707070"/>
<path d="M10.0024 13.3389H14.0267C14.4058 13.3389 14.6974 13.0181 14.6974 12.6682C14.6974 12.2891 14.3766 11.9975 14.0267 11.9975H10.0024C9.62329 11.9975 9.33168 12.3183 9.33168 12.6682C9.30252 13.0181 9.62329 13.3389 10.0024 13.3389Z" fill="#707070"/>
<path d="M10.0024 15.9051H14.0267C14.4058 15.9051 14.6974 15.5844 14.6974 15.2344C14.6974 14.8553 14.3766 14.5637 14.0267 14.5637H10.0024C9.62329 14.5637 9.33168 14.8845 9.33168 15.2344C9.30252 15.5844 9.62329 15.9051 10.0024 15.9051Z" fill="#707070"/>
</svg>
