<svg width="24" height="20" viewBox="0 0 24 20" fill="none" xmlns="http://www.w3.org/2000/svg">
<path d="M12 9.44523e-07C9.62671 -0.000920534 7.30648 0.674803 5.33291 1.94166C3.35934 3.20852 1.82115 5.00958 0.91298 7.11691C0.00481103 9.22424 -0.232513 11.5431 0.231039 13.7801C0.694592 16.0171 1.83819 18.0717 3.5171 19.6839C3.61952 19.7824 3.74114 19.8606 3.87501 19.9139C4.00888 19.9672 4.15238 19.9947 4.2973 19.9947C4.44222 19.9947 4.58571 19.9672 4.71959 19.9139C4.85346 19.8606 4.97508 19.7824 5.07749 19.6839C5.09403 19.668 5.10782 19.6468 5.1216 19.6309L7.46219 17.3814L5.90731 15.887L4.34141 17.392C3.19572 16.0108 2.47987 14.3464 2.27651 12.5909H4.48201V10.4712H2.27651C2.47987 8.71571 3.19572 7.05128 4.34141 5.67014L5.90731 7.17511L7.4677 5.67544L5.9018 4.16782C7.33707 3.06336 9.06966 2.37413 10.8972 2.18062V4.3003H13.1027V2.18062C14.9303 2.37413 16.6629 3.06336 18.0982 4.16782L16.5323 5.67279L18.0927 7.17246L19.6586 5.66749C20.8087 7.04661 21.5268 8.71181 21.729 10.4686H19.5235V12.5882H21.729C21.5268 14.345 20.8087 16.0102 19.6586 17.3893L18.0927 15.887L16.5323 17.3867L18.8729 19.6362C18.8894 19.6547 18.9004 19.6733 18.917 19.6892C19.0194 19.7877 19.141 19.8659 19.2749 19.9192C19.4088 19.9725 19.5523 20 19.6972 20C19.8421 20 19.9856 19.9725 20.1195 19.9192C20.2533 19.8659 20.375 19.7877 20.4774 19.6892C22.1579 18.0776 23.303 16.0231 23.7678 13.7857C24.2326 11.5482 23.9962 9.22858 23.0885 7.12037C22.1808 5.01216 20.6426 3.21022 18.6687 1.9427C16.6948 0.675179 14.3739 -0.000922416 12 9.44523e-07Z" fill="#707070"/>
<path d="M10.8973 6.2875V9.46702C10.2737 9.71256 9.75823 10.1586 9.43888 10.7289C9.11952 11.2991 9.01611 11.9583 9.14631 12.5937C9.27651 13.2292 9.63223 13.8014 10.1527 14.2128C10.6732 14.6241 11.3261 14.849 12 14.849C12.6739 14.849 13.3268 14.6241 13.8473 14.2128C14.3678 13.8014 14.7235 13.2292 14.8537 12.5937C14.9839 11.9583 14.8805 11.2991 14.5611 10.7289C14.2418 10.1586 13.7263 9.71256 13.1027 9.46702V6.2875H10.8973ZM12 12.726C11.861 12.726 11.725 12.6864 11.6094 12.6122C11.4938 12.5379 11.4037 12.4324 11.3505 12.3089C11.2973 12.1855 11.2834 12.0496 11.3105 11.9186C11.3376 11.7875 11.4046 11.6671 11.5029 11.5726C11.6012 11.4781 11.7265 11.4138 11.8629 11.3877C11.9992 11.3616 12.1406 11.375 12.269 11.4262C12.3975 11.4773 12.5073 11.5639 12.5845 11.675C12.6618 11.7861 12.703 11.9167 12.703 12.0504C12.7041 12.1398 12.6867 12.2285 12.6519 12.3114C12.617 12.3943 12.5654 12.4697 12.5 12.5333C12.4347 12.5969 12.3568 12.6473 12.271 12.6818C12.1851 12.7162 12.093 12.734 12 12.734V12.726Z" fill="#707070"/>
</svg>