<svg width="24" height="28" viewBox="0 0 24 28" fill="none" xmlns="http://www.w3.org/2000/svg">
<path d="M22.3184 16.3437C22.13 16.2359 21.9316 16.1466 21.726 16.0771V12.3861C22.1929 12.228 22.6189 11.9683 22.9733 11.6257C23.3278 11.2831 23.6018 10.8661 23.7757 10.4049C23.9495 9.94358 24.0189 9.44948 23.9787 8.95817C23.9386 8.46685 23.7899 7.99057 23.5435 7.56363C23.2971 7.13669 22.959 6.76974 22.5537 6.48922C22.1483 6.20869 21.6858 6.02159 21.1994 5.94139C20.713 5.8612 20.2149 5.8899 19.741 6.02544C19.267 6.16097 18.829 6.39996 18.4586 6.72519L15.2534 4.8797C15.3493 4.3965 15.3368 3.89806 15.2169 3.42026C15.097 2.94245 14.8727 2.49717 14.5601 2.11646C14.2475 1.73575 13.8543 1.42907 13.409 1.21851C12.9637 1.00795 12.4772 0.898743 11.9846 0.898743C11.4919 0.898743 11.0055 1.00795 10.5601 1.21851C10.1148 1.42907 9.72164 1.73575 9.40902 2.11646C9.09641 2.49717 8.87209 2.94245 8.7522 3.42026C8.63232 3.89806 8.61985 4.3965 8.7157 4.8797L5.53126 6.72519C5.16053 6.39969 4.72214 6.16057 4.24776 6.02508C3.77338 5.88959 3.27483 5.86112 2.78811 5.94172C2.30138 6.02232 1.83863 6.20998 1.43324 6.49115C1.02786 6.77233 0.689956 7.14 0.443933 7.56763C0.197911 7.99526 0.0499033 8.47218 0.0105951 8.96397C-0.028713 9.45575 0.0416588 9.95013 0.216631 10.4114C0.391602 10.8727 0.666809 11.2894 1.02238 11.6314C1.37796 11.9734 1.80503 12.2321 2.27277 12.389V16.0771C1.80546 16.2343 1.37881 16.4931 1.02353 16.835C0.668246 17.1768 0.39317 17.5932 0.218096 18.0541C0.043023 18.515 -0.0276924 19.009 0.0110398 19.5005C0.049772 19.992 0.196988 20.4689 0.442093 20.8967C0.660025 21.2763 0.951042 21.6089 1.29832 21.8753C1.64559 22.1417 2.04224 22.3367 2.46532 22.4489C2.74833 22.5252 3.04014 22.564 3.33326 22.5644C4.13593 22.562 4.9109 22.2707 5.51645 21.7439L8.73643 23.5894C8.64182 24.0721 8.65527 24.5699 8.77582 25.0469C8.89637 25.5238 9.12103 25.9682 9.43367 26.348C9.74631 26.7279 10.1392 27.0338 10.5841 27.2439C11.0289 27.4539 11.5148 27.5628 12.0068 27.5628C12.4987 27.5628 12.9846 27.4539 13.4295 27.2439C13.8744 27.0338 14.2672 26.7279 14.5799 26.348C14.8925 25.9682 15.1172 25.5238 15.2377 25.0469C15.3583 24.5699 15.3717 24.0721 15.2771 23.5894L18.4764 21.7439C18.6388 21.8847 18.8144 22.0097 19.0007 22.1171C19.5055 22.4101 20.0788 22.5644 20.6625 22.5644C20.9556 22.564 21.2474 22.5252 21.5305 22.4489C22.1671 22.2782 22.7388 21.9226 23.1733 21.4269C23.6078 20.9313 23.8856 20.318 23.9716 19.6645C24.0575 19.011 23.9477 18.3467 23.6561 17.7556C23.3645 17.1645 22.9041 16.6731 22.3332 16.3437H22.3184ZM19.8183 7.78864C20.1523 7.59543 20.5429 7.524 20.9237 7.58654C21.3044 7.64907 21.6517 7.84169 21.9064 8.13158C22.161 8.42148 22.3073 8.7907 22.3202 9.17634C22.3331 9.56197 22.2119 9.94017 21.9773 10.2465C21.7426 10.5528 21.409 10.7682 21.0333 10.8561C20.6576 10.944 20.2631 10.899 19.9169 10.7286C19.5707 10.5582 19.2943 10.273 19.1348 9.92164C18.9753 9.5703 18.9425 9.17451 19.0422 8.80174C19.1563 8.3745 19.4355 8.01009 19.8183 7.78864ZM17.5166 8.10264C17.485 8.18954 17.4573 8.2784 17.4336 8.36925C17.3131 8.81512 17.2866 9.28119 17.3559 9.73785C17.4252 10.1945 17.5887 10.6318 17.8361 11.0218C18.0835 11.4118 18.4093 11.7461 18.7929 12.0035C19.1765 12.2608 19.6094 12.4355 20.0641 12.5164V15.9497C19.9713 15.9655 19.8795 15.9862 19.7886 16.0119C19.2123 16.1661 18.6882 16.4731 18.272 16.9006L15.206 15.1202C15.3249 14.6941 15.3578 14.2484 15.3026 13.8094C15.2475 13.3704 15.1055 12.9468 14.8849 12.5632C14.6643 12.1796 14.3696 11.8438 14.0178 11.5754C13.6661 11.307 13.2644 11.1113 12.8362 10.9997V7.44502C13.5033 7.27162 14.1004 6.896 14.5454 6.36972L17.5166 8.10264ZM10.3272 14.2316C10.3272 13.9017 10.425 13.5793 10.6082 13.305C10.7915 13.0308 11.052 12.817 11.3567 12.6908C11.6614 12.5645 11.9968 12.5315 12.3203 12.5959C12.6438 12.6602 12.941 12.819 13.1742 13.0523C13.4074 13.2855 13.5663 13.5827 13.6306 13.9062C13.695 14.2297 13.662 14.565 13.5357 14.8698C13.4095 15.1745 13.1957 15.435 12.9215 15.6183C12.6472 15.8015 12.3248 15.8993 11.9949 15.8993C11.5526 15.8993 11.1284 15.7236 10.8156 15.4108C10.5029 15.0981 10.3272 14.6739 10.3272 14.2316ZM11.9949 2.56913C12.3249 2.56855 12.6476 2.66586 12.9223 2.84876C13.1969 3.03166 13.4112 3.29192 13.5378 3.59661C13.6645 3.9013 13.698 4.23672 13.634 4.56043C13.5699 4.88414 13.4113 5.18158 13.1782 5.41512C12.9451 5.64865 12.6479 5.80779 12.3243 5.87238C12.0007 5.93697 11.6653 5.90411 11.3603 5.77797C11.0554 5.65183 10.7948 5.43807 10.6114 5.16375C10.428 4.88943 10.3301 4.56686 10.3301 4.23689C10.3301 3.79508 10.5054 3.37133 10.8176 3.05865C11.1297 2.74597 11.5531 2.56992 11.9949 2.56913ZM11.1596 7.45983V11.0145C10.7314 11.1261 10.3297 11.3218 9.97796 11.5902C9.62622 11.8587 9.33145 12.1944 9.11085 12.578C8.89026 12.9616 8.74825 13.3852 8.69312 13.8242C8.63799 14.2633 8.67084 14.7089 8.78975 15.1351L5.71492 16.8976C5.29865 16.4702 4.77463 16.1631 4.19824 16.0089C4.1074 15.9852 4.01557 15.9645 3.92275 15.9467V12.5135C4.01458 12.4957 4.10641 12.4779 4.19824 12.4512C4.64357 12.3321 5.05931 12.1219 5.41914 11.8337C5.77897 11.5456 6.07506 11.1859 6.28864 10.7774C6.50222 10.3689 6.62865 9.92048 6.65992 9.46057C6.69119 9.00066 6.62662 8.53926 6.4703 8.1056L9.45034 6.38453C9.89542 6.91081 10.4925 7.28643 11.1596 7.45983ZM1.8936 8.39887C2.05742 8.11277 2.30236 7.88164 2.59747 7.73468C2.89258 7.58772 3.22463 7.53152 3.55167 7.57319C3.8787 7.61485 4.18605 7.75251 4.43489 7.96877C4.68373 8.18503 4.86289 8.47019 4.94974 8.78822C5.03659 9.10626 5.02723 9.4429 4.92285 9.75562C4.81847 10.0683 4.62374 10.3431 4.36327 10.5452C4.1028 10.7473 3.78828 10.8677 3.45943 10.8911C3.13058 10.9145 2.80217 10.84 2.51568 10.6769C2.32506 10.5683 2.15773 10.4232 2.02326 10.2499C1.8888 10.0766 1.78984 9.87852 1.73205 9.66691C1.67427 9.45531 1.65879 9.23439 1.68652 9.0168C1.71424 8.79921 1.78461 8.58922 1.8936 8.39887ZM4.16862 20.6715C3.94716 20.8 3.69911 20.8757 3.44367 20.8929C3.18822 20.9101 2.93226 20.8682 2.6956 20.7705C2.45895 20.6729 2.24795 20.522 2.07897 20.3297C1.90998 20.1374 1.78754 19.9087 1.72114 19.6615C1.65473 19.4142 1.64614 19.155 1.69604 18.9039C1.74593 18.6528 1.85296 18.4165 2.00884 18.2135C2.16473 18.0104 2.36527 17.8459 2.59494 17.7328C2.82462 17.6197 3.07725 17.5609 3.33326 17.5612C3.48025 17.5607 3.62666 17.5797 3.76872 17.6174C4.08624 17.7034 4.37123 17.8814 4.58784 18.129C4.80445 18.3766 4.943 18.6827 4.98606 19.0089C5.02913 19.335 4.97478 19.6666 4.82985 19.9619C4.68493 20.2572 4.4559 20.5031 4.17158 20.6686L4.16862 20.6715ZM11.9949 25.897C11.6649 25.897 11.3424 25.7991 11.0681 25.6157C10.7937 25.4323 10.58 25.1717 10.4538 24.8667C10.3277 24.5618 10.2948 24.2263 10.3594 23.9028C10.424 23.5792 10.5832 23.282 10.8167 23.0489C11.0502 22.8158 11.3477 22.6572 11.6714 22.5931C11.9951 22.5291 12.3305 22.5626 12.6352 22.6893C12.9399 22.8159 13.2002 23.0302 13.3831 23.3048C13.566 23.5795 13.6633 23.9022 13.6627 24.2322C13.6619 24.674 13.4858 25.0974 13.1732 25.4095C12.8605 25.7217 12.4367 25.897 11.9949 25.897ZM11.9949 20.8967C11.5096 20.8964 11.03 21.0023 10.5899 21.207C10.1498 21.4117 9.75986 21.7102 9.44738 22.0816L6.46734 20.3635C6.70343 19.7127 6.73138 19.0046 6.54732 18.3373L9.61919 16.5599C9.92871 16.8741 10.2976 17.1236 10.7045 17.2939C11.1113 17.4642 11.548 17.5519 11.989 17.5519C12.43 17.5519 12.8667 17.4642 13.2735 17.2939C13.6804 17.1236 14.0493 16.8741 14.3588 16.5599L17.4277 18.3373C17.2701 18.9112 17.2701 19.517 17.4277 20.0909C17.4534 20.1837 17.482 20.2746 17.5136 20.3635L14.5514 22.0816C14.2379 21.709 13.8465 21.4098 13.4048 21.2051C12.9631 21.0003 12.4818 20.8951 11.9949 20.8967ZM22.0962 20.0643C21.9593 20.302 21.7657 20.5023 21.5328 20.6474C21.2999 20.7925 21.0348 20.8778 20.761 20.8959C20.4872 20.914 20.2131 20.8642 19.9632 20.751C19.7132 20.6378 19.495 20.4647 19.328 20.247C19.1609 20.0293 19.0502 19.7737 19.0056 19.503C18.961 19.2322 18.9838 18.9546 19.0722 18.6948C19.1605 18.4351 19.3116 18.2011 19.512 18.0136C19.7124 17.8262 19.956 17.6911 20.2211 17.6204C20.3632 17.5826 20.5096 17.5637 20.6566 17.5641C20.9487 17.5651 21.2355 17.6428 21.4882 17.7894C21.7408 17.936 21.9506 18.1465 22.0963 18.3996C22.2421 18.6528 22.3188 18.9398 22.3188 19.232C22.3188 19.5241 22.2421 19.8111 22.0962 20.0643Z" fill="#707070"/>
</svg>
