<svg width="24" height="24" viewBox="0 0 24 24" fill="none" xmlns="http://www.w3.org/2000/svg">
<path d="M21.8546 15.3904C21.9741 14.7713 22.0418 14.1341 22.0418 13.4809C22.0418 9.25631 19.4159 5.63974 15.714 4.15958C15.6959 2.1261 14.0375 0.477234 12 0.477234C9.96251 0.477234 8.3041 2.12661 8.28602 4.15958C4.5836 5.64025 1.95816 9.25681 1.95816 13.4809C1.95816 14.1341 2.02594 14.7713 2.14544 15.3904C0.880167 15.9838 0 17.2657 0 18.7529C0 20.8014 1.66695 22.4684 3.71548 22.4684C4.62527 22.4684 5.45925 22.1385 6.10594 21.5932C7.76385 22.8012 9.79682 23.5228 12 23.5228C14.2032 23.5228 16.2367 22.8007 17.8941 21.5932C18.5408 22.1385 19.3742 22.4684 20.2845 22.4684C22.3331 22.4684 24 20.8014 24 18.7529C24 17.2657 23.1198 15.9833 21.8546 15.3904ZM6.78176 20.8471C7.19046 20.2501 7.43096 19.5296 7.43096 18.7529C7.43096 16.7043 5.76402 15.0374 3.71548 15.0374C3.51013 15.0374 3.31029 15.0585 3.11397 15.0906C3.01958 14.5674 2.96234 14.0312 2.96234 13.4809C2.96234 9.76794 5.21473 6.57363 8.42309 5.18485C8.85891 6.75238 10.2954 7.90769 12 7.90769C13.7046 7.90769 15.1411 6.75238 15.5769 5.18485C18.7858 6.57363 21.0377 9.76794 21.0377 13.4809C21.0377 14.0312 20.9804 14.5674 20.886 15.0906C20.6897 15.0585 20.4899 15.0374 20.2845 15.0374C18.236 15.0374 16.569 16.7043 16.569 18.7529C16.569 19.5291 16.809 20.2501 17.2182 20.8471C15.7426 21.8955 13.9441 22.5186 12 22.5186C10.0559 22.5186 8.25791 21.8955 6.78176 20.8471Z" fill="#707070"/>
</svg>
