<svg width="24" height="24" viewBox="0 0 24 24" fill="none" xmlns="http://www.w3.org/2000/svg">
<path d="M9.77881 10.8425H0.832948C0.612036 10.8425 0.400173 10.7548 0.243965 10.5986C0.0877566 10.4424 0 10.2305 0 10.0096V1.40245C0 1.18154 0.0877566 0.969676 0.243965 0.813468C0.400173 0.65726 0.612036 0.569504 0.832948 0.569504H9.77881C9.99972 0.569504 10.2116 0.65726 10.3678 0.813468C10.524 0.969676 10.6118 1.18154 10.6118 1.40245V10.0096C10.6118 10.2305 10.524 10.4424 10.3678 10.5986C10.2116 10.7548 9.99972 10.8425 9.77881 10.8425ZM1.6659 9.17663H8.94586V2.2354H1.6659V9.17663Z" fill="#707070"/>
<path d="M5.06433 7.9744L2.54883 6.02253L3.5678 4.70647L4.84499 5.69768L6.81352 3.44872L8.06572 4.54544L5.06433 7.9744Z" fill="#707070"/>
<path d="M24 4.87307H12.6414V6.53897H24V4.87307Z" fill="#707070"/>
<path d="M9.77881 23.892H0.832948C0.612036 23.892 0.400173 23.8043 0.243965 23.6481C0.0877566 23.4919 0 23.28 0 23.0591V14.452C0 14.2311 0.0877566 14.0192 0.243965 13.863C0.400173 13.7068 0.612036 13.619 0.832948 13.619H9.77881C9.99972 13.619 10.2116 13.7068 10.3678 13.863C10.524 14.0192 10.6118 14.2311 10.6118 14.452V23.0591C10.6118 23.28 10.524 23.4919 10.3678 23.6481C10.2116 23.8043 9.99972 23.892 9.77881 23.892ZM1.6659 22.2261H8.94586V15.2849H1.6659V22.2261Z" fill="#707070"/>
<path d="M5.06433 21.0239L2.54883 19.072L3.5678 17.756L4.84499 18.7472L6.81352 16.4982L8.06572 17.595L5.06433 21.0239Z" fill="#707070"/>
<path d="M24 17.9226H12.6414V19.5885H24V17.9226Z" fill="#707070"/>
</svg>
