<svg width="14" height="16" viewBox="0 0 14 16" fill="none" xmlns="http://www.w3.org/2000/svg">
<path d="M2.28624 1.94116C-0.30155 4.52915 -0.30155 8.72489 2.28624 11.3131L6.97294 16L11.659 11.3131C14.2476 8.72489 14.2476 4.52915 11.659 1.94116C9.07081 -0.647052 4.87466 -0.647052 2.28624 1.94116ZM10.569 10.223C8.58316 12.2088 5.36292 12.2088 3.37713 10.223C1.39112 8.23662 1.39112 5.01721 3.37713 3.03142C5.36292 1.04541 8.58316 1.04541 10.569 3.03142C12.5552 5.01721 12.5552 8.23683 10.569 10.223Z" fill="#453E98"/>
<path d="M6.97337 10.2352C8.96592 10.2352 10.5812 8.61991 10.5812 6.62736C10.5812 4.63481 8.96592 3.01953 6.97337 3.01953C4.98082 3.01953 3.36554 4.63481 3.36554 6.62736C3.36554 8.61991 4.98082 10.2352 6.97337 10.2352Z" fill="#453E98"/>
</svg>
