<svg width="24" height="32" viewBox="0 0 24 32" fill="none" xmlns="http://www.w3.org/2000/svg">
<path d="M23.591 21.6893C23.397 21.399 23.1434 21.1534 22.8471 20.9688C22.5508 20.7842 22.2185 20.6648 21.8724 20.6187C21.5264 20.5725 21.1744 20.6006 20.8401 20.7011C20.5057 20.8016 20.1966 20.9722 19.9334 21.2016L15.2204 25.544H14.4308C14.8604 24.9946 15.0952 24.3179 15.0982 23.6204C15.0978 23.2381 14.9458 22.8715 14.6754 22.6011C14.4051 22.3307 14.0385 22.1787 13.6561 22.1783H5.555C5.45756 22.1782 5.36143 22.2008 5.27432 22.2445L3.96821 22.9044C3.83994 22.6866 3.65784 22.5054 3.43939 22.3783C3.22093 22.2511 2.97347 22.1823 2.72074 22.1783H1.49697C1.09995 22.1783 0.719188 22.3361 0.438452 22.6168C0.157716 22.8975 0 23.2783 0 23.6753V30.2395C0 30.6365 0.157716 31.0173 0.438452 31.298C0.719188 31.5788 1.09995 31.7365 1.49697 31.7365H2.71575C2.9543 31.733 3.18844 31.6716 3.3981 31.5578C3.60776 31.4439 3.78669 31.281 3.91956 31.0828L5.27806 31.7564C5.36415 31.7991 5.45892 31.8213 5.555 31.8213H14.5119C15.0622 31.8225 15.6073 31.7148 16.1158 31.5043C16.6243 31.2938 17.0861 30.9848 17.4746 30.595L23.2841 24.7843C23.6835 24.3825 23.9321 23.8552 23.988 23.2914C24.0439 22.7276 23.9037 22.1618 23.591 21.6893ZM2.96649 30.2395C2.96649 30.3057 2.94021 30.3692 2.89342 30.4159C2.84663 30.4627 2.78317 30.489 2.717 30.489H1.49697C1.4308 30.489 1.36734 30.4627 1.32055 30.4159C1.27376 30.3692 1.24747 30.3057 1.24747 30.2395V23.6766C1.24747 23.6104 1.27376 23.5469 1.32055 23.5001C1.36734 23.4534 1.4308 23.4271 1.49697 23.4271H2.71575C2.78192 23.4271 2.84538 23.4534 2.89217 23.5001C2.93896 23.5469 2.96525 23.6104 2.96525 23.6766L2.96649 30.2395ZM22.4021 23.9048L16.5926 29.7156C16.3198 29.9893 15.9955 30.2064 15.6384 30.3541C15.2812 30.5018 14.8984 30.5774 14.5119 30.5763H5.7022L4.21397 29.8378V24.1768L5.7047 23.4283H13.6561C13.7077 23.4283 13.7572 23.4488 13.7937 23.4853C13.8302 23.5218 13.8507 23.5713 13.8507 23.6229C13.8504 24.133 13.6476 24.6221 13.2869 24.9827C12.9263 25.3434 12.4372 25.5462 11.9271 25.5465H8.25828C8.09285 25.5465 7.9342 25.6122 7.81723 25.7292C7.70025 25.8462 7.63454 26.0048 7.63454 26.1703C7.63454 26.3357 7.70025 26.4943 7.81723 26.6113C7.9342 26.7283 8.09285 26.794 8.25828 26.794H15.4649C15.6216 26.7942 15.7725 26.7354 15.8878 26.6293L20.7642 22.1384C20.8939 22.0273 21.0457 21.945 21.2096 21.8969C21.3735 21.8489 21.5457 21.8363 21.7149 21.8599C21.884 21.8835 22.0462 21.9427 22.1908 22.0338C22.3353 22.1248 22.4588 22.2455 22.5531 22.3879C22.7057 22.6197 22.774 22.897 22.7465 23.1731C22.719 23.4493 22.5974 23.7077 22.4021 23.9048Z" fill="#707070"/>
<path d="M8.13353 14.1733C8.68302 14.5136 9.09577 15.0358 9.29992 15.6491C9.179 15.6913 9.07402 15.7698 8.99925 15.8738C8.92449 15.9778 8.88355 16.1023 8.88201 16.2304V18.6455C8.88267 19.1627 9.08844 19.6586 9.45419 20.0244C9.81994 20.3901 10.3158 20.5959 10.8331 20.5965H13.1683C13.6856 20.5959 14.1815 20.3901 14.5472 20.0244C14.913 19.6586 15.1187 19.1627 15.1194 18.6455V16.2304C15.1179 16.1018 15.0767 15.9768 15.0015 15.8725C14.9262 15.7682 14.8206 15.6897 14.699 15.6478C14.923 15.0269 15.3497 14.4995 15.9103 14.1508C16.8898 13.5328 17.7087 12.6911 18.2997 11.695C18.8907 10.6989 19.2369 9.57685 19.31 8.42094C19.3831 7.26503 19.1808 6.10827 18.7199 5.04571C18.2591 3.98314 17.5527 3.04508 16.6588 2.30858C15.816 1.61825 14.8307 1.12336 13.7737 0.859553C12.7168 0.595743 11.6144 0.569569 10.5461 0.782918C9.1102 1.07511 7.79495 1.7914 6.77049 2.83916C5.74603 3.88691 5.05949 5.21793 4.79965 6.66008C4.53981 8.10223 4.71863 9.58917 5.31298 10.9286C5.90733 12.268 6.88987 13.3983 8.13353 14.1733ZM13.8719 18.6455C13.8716 18.832 13.7973 19.0108 13.6655 19.1426C13.5336 19.2745 13.3548 19.3487 13.1683 19.3491H10.8331C10.6466 19.3487 10.4678 19.2745 10.3359 19.1426C10.204 19.0108 10.1298 18.832 10.1295 18.6455V16.8541H13.8719V18.6455ZM6.03528 6.79449C6.2598 5.61607 6.83084 4.53144 7.67532 3.6794C8.5198 2.82737 9.5993 2.24669 10.7757 2.01168C11.659 1.83052 12.5716 1.84815 13.4473 2.06328C14.323 2.27842 15.1398 2.68567 15.8386 3.25553C16.5375 3.82539 17.1008 4.54358 17.4877 5.35806C17.8747 6.17254 18.0756 7.0629 18.0759 7.96462C18.0772 8.98919 17.8179 9.99726 17.3226 10.8941C16.8272 11.791 16.112 12.5472 15.2441 13.0917C14.3276 13.6583 13.669 14.5609 13.4091 15.6066H12.6244V10.0242L14.9946 7.654C15.1083 7.53637 15.1711 7.37881 15.1697 7.21527C15.1683 7.05172 15.1027 6.89528 14.987 6.77964C14.8714 6.66399 14.7149 6.59839 14.5514 6.59697C14.3879 6.59555 14.2303 6.65842 14.1127 6.77204L12.0007 8.88401L9.88997 6.77329C9.83243 6.71371 9.76361 6.6662 9.68751 6.63351C9.61141 6.60082 9.52956 6.58361 9.44675 6.58289C9.36393 6.58217 9.28179 6.59795 9.20514 6.62932C9.12848 6.66068 9.05884 6.70699 9.00028 6.76556C8.94171 6.82412 8.8954 6.89376 8.86404 6.97042C8.83267 7.04707 8.81689 7.12921 8.81761 7.21202C8.81833 7.29484 8.83554 7.37669 8.86823 7.45279C8.90092 7.52889 8.94843 7.59771 9.00801 7.65525L11.3782 10.0255V15.6066H10.5973C10.4754 15.0924 10.2533 14.6073 9.94349 14.1792C9.63373 13.7511 9.24248 13.3883 8.7922 13.1117C7.74707 12.4602 6.92408 11.507 6.43187 10.3781C5.93967 9.2491 5.80139 7.99743 6.03528 6.78826V6.79449Z" fill="#707070"/>
</svg>
