<svg width="24" height="34" viewBox="0 0 24 34" fill="none" xmlns="http://www.w3.org/2000/svg">
<path d="M12 1.84615C12.7303 1.84615 13.4441 2.0627 14.0513 2.46842C14.6585 2.87414 15.1318 3.45079 15.4112 4.12548C15.6907 4.80016 15.7638 5.54256 15.6214 6.25879C15.4789 6.97503 15.1272 7.63294 14.6109 8.14932C14.0945 8.6657 13.4366 9.01735 12.7203 9.15982C12.0041 9.30229 11.2617 9.22917 10.587 8.94971C9.91234 8.67025 9.33568 8.19699 8.92996 7.5898C8.52424 6.9826 8.30769 6.26873 8.30769 5.53846C8.30881 4.55954 8.69817 3.62104 9.39038 2.92884C10.0826 2.23664 11.0211 1.84727 12 1.84615ZM12 0C10.9046 0 9.83379 0.324825 8.923 0.933399C8.0122 1.54197 7.30232 2.40696 6.88313 3.41898C6.46394 4.43101 6.35426 5.5446 6.56796 6.61896C6.78166 7.69332 7.30915 8.68018 8.08372 9.45475C8.85828 10.2293 9.84514 10.7568 10.9195 10.9705C11.9939 11.1842 13.1075 11.0745 14.1195 10.6553C15.1315 10.2361 15.9965 9.52626 16.6051 8.61547C17.2136 7.70467 17.5385 6.63387 17.5385 5.53846C17.5385 4.06957 16.9549 2.66084 15.9163 1.62218C14.8776 0.583515 13.4689 0 12 0ZM18.4615 16.6154C19.4405 16.6165 20.379 17.0059 21.0712 17.6981C21.7634 18.3903 22.1527 19.3288 22.1538 20.3077C22.1533 20.7971 21.9586 21.2664 21.6125 21.6125C21.2664 21.9586 20.7972 22.1533 20.3077 22.1538H3.69231C3.20285 22.1533 2.7336 21.9586 2.3875 21.6125C2.0414 21.2664 1.84672 20.7971 1.84616 20.3077C1.84727 19.3288 2.23664 18.3903 2.92884 17.6981C3.62104 17.0059 4.55954 16.6165 5.53846 16.6154H18.4615ZM18.4615 14.7692H5.53846C4.06957 14.7692 2.66084 15.3527 1.62218 16.3914C0.583516 17.4301 1.49385e-06 18.8388 1.49385e-06 20.3077C1.49385e-06 21.287 0.389011 22.2261 1.08145 22.9185C1.7739 23.611 2.71305 24 3.69231 24H20.3077C21.287 24 22.2261 23.611 22.9185 22.9185C23.611 22.2261 24 21.287 24 20.3077C24 18.8388 23.4165 17.4301 22.3778 16.3914C21.3392 15.3527 19.9304 14.7692 18.4615 14.7692ZM2.76923 29.5385C2.9518 29.5385 3.13027 29.5926 3.28207 29.694C3.43387 29.7955 3.55218 29.9396 3.62204 30.1083C3.69191 30.277 3.71019 30.4626 3.67457 30.6416C3.63896 30.8207 3.55104 30.9852 3.42195 31.1143C3.29285 31.2433 3.12837 31.3313 2.94932 31.3669C2.77026 31.4025 2.58466 31.3842 2.41599 31.3143C2.24732 31.2445 2.10315 31.1262 2.00172 30.9744C1.90029 30.8226 1.84616 30.6441 1.84616 30.4615C1.84643 30.2168 1.94378 29.9822 2.11683 29.8091C2.28988 29.6361 2.5245 29.5387 2.76923 29.5385ZM2.76923 27.6923C2.22153 27.6923 1.68613 27.8547 1.23073 28.159C0.775332 28.4633 0.420393 28.8958 0.210796 29.4018C0.00119987 29.9078 -0.0536401 30.4646 0.0532112 31.0018C0.160063 31.539 0.423806 32.0324 0.81109 32.4197C1.19837 32.807 1.6918 33.0707 2.22898 33.1776C2.76616 33.2844 3.32296 33.2296 3.82897 33.02C4.33498 32.8104 4.76748 32.4554 5.07176 32C5.37605 31.5446 5.53846 31.0092 5.53846 30.4615C5.53846 29.7271 5.24671 29.0227 4.72737 28.5034C4.20804 27.9841 3.50368 27.6923 2.76923 27.6923ZM12 29.5385C12.1826 29.5385 12.361 29.5926 12.5128 29.694C12.6646 29.7955 12.7829 29.9396 12.8528 30.1083C12.9227 30.277 12.941 30.4626 12.9053 30.6416C12.8697 30.8207 12.7818 30.9852 12.6527 31.1143C12.5236 31.2433 12.3591 31.3313 12.1801 31.3669C12.001 31.4025 11.8154 31.3842 11.6468 31.3143C11.4781 31.2445 11.3339 31.1262 11.2325 30.9744C11.1311 30.8226 11.0769 30.6441 11.0769 30.4615C11.0772 30.2168 11.1745 29.9822 11.3476 29.8091C11.5206 29.6361 11.7553 29.5387 12 29.5385ZM12 27.6923C11.4523 27.6923 10.9169 27.8547 10.4615 28.159C10.0061 28.4633 9.65116 28.8958 9.44157 29.4018C9.23197 29.9078 9.17713 30.4646 9.28398 31.0018C9.39083 31.539 9.65458 32.0324 10.0419 32.4197C10.4291 32.807 10.9226 33.0707 11.4598 33.1776C11.9969 33.2844 12.5537 33.2296 13.0597 33.02C13.5658 32.8104 13.9982 32.4554 14.3025 32C14.6068 31.5446 14.7692 31.0092 14.7692 30.4615C14.7692 29.7271 14.4775 29.0227 13.9581 28.5034C13.4388 27.9841 12.7344 27.6923 12 27.6923ZM21.2308 29.5385C21.4133 29.5385 21.5918 29.5926 21.7436 29.694C21.8954 29.7955 22.0137 29.9396 22.0836 30.1083C22.1534 30.277 22.1717 30.4626 22.1361 30.6416C22.1005 30.8207 22.0126 30.9852 21.8835 31.1143C21.7544 31.2433 21.5899 31.3313 21.4109 31.3669C21.2318 31.4025 21.0462 31.3842 20.8775 31.3143C20.7089 31.2445 20.5647 31.1262 20.4633 30.9744C20.3618 30.8226 20.3077 30.6441 20.3077 30.4615C20.308 30.2168 20.4053 29.9822 20.5784 29.8091C20.7514 29.6361 20.986 29.5387 21.2308 29.5385ZM21.2308 27.6923C20.6831 27.6923 20.1477 27.8547 19.6923 28.159C19.2369 28.4633 18.8819 28.8958 18.6723 29.4018C18.4627 29.9078 18.4079 30.4646 18.5147 31.0018C18.6216 31.539 18.8853 32.0324 19.2726 32.4197C19.6599 32.807 20.1533 33.0707 20.6905 33.1776C21.2277 33.2844 21.7845 33.2296 22.2905 33.02C22.7965 32.8104 23.229 32.4554 23.5333 32C23.8376 31.5446 24 31.0092 24 30.4615C24 29.7271 23.7082 29.0227 23.1889 28.5034C22.6696 27.9841 21.9652 27.6923 21.2308 27.6923Z" fill="#707070"/>
</svg>
