<svg width="21" height="12" viewBox="0 0 21 12" fill="none" xmlns="http://www.w3.org/2000/svg">
<path d="M20.1599 5.53706C19.9916 5.32665 15.7201 0.36084 10.3335 0.36084C4.94686 0.36084 0.696463 5.32665 0.507089 5.53706C0.275632 5.8106 0.275632 6.21039 0.507089 6.46289C0.675421 6.67331 4.92582 11.6391 10.3335 11.6391C15.7412 11.6391 19.9705 6.67331 20.1599 6.46289C20.3914 6.18935 20.3914 5.8106 20.1599 5.53706ZM5.97789 8.98788C4.14728 7.99892 2.73749 6.69435 2.04312 5.99998C2.71645 5.30561 4.14728 4.00103 5.95685 3.01208C5.36769 3.85374 5.03102 4.88477 5.03102 5.99998C5.05207 7.11518 5.38873 8.12517 5.97789 8.98788ZM10.3335 9.82954C8.2083 9.82954 6.50393 8.10413 6.50393 5.99998C6.50393 3.87478 8.22934 2.17041 10.3335 2.17041C12.4377 2.17041 14.1631 3.87478 14.1631 5.99998C14.1631 8.12517 12.4587 9.82954 10.3335 9.82954ZM14.6891 8.98788C15.2783 8.14621 15.6149 7.11518 15.6149 5.99998C15.6149 4.88477 15.2783 3.87478 14.6891 3.01208C16.5197 3.97999 17.9295 5.30561 18.6028 5.99998C17.9295 6.69435 16.5197 7.99892 14.6891 8.98788Z" fill="#707070"/>
<path d="M11.7854 5.87376C11.049 5.87376 10.4598 5.2846 10.4598 4.54814C10.4598 4.21148 10.5861 3.89585 10.8175 3.6644C10.6702 3.62231 10.5019 3.62231 10.3336 3.62231C9.00793 3.62231 7.93481 4.69543 7.93481 6.02105C7.93481 7.34667 9.00793 8.39875 10.3336 8.39875C11.6592 8.39875 12.7323 7.32563 12.7323 6.00001C12.7323 5.83168 12.7112 5.66335 12.6902 5.51605C12.4377 5.72647 12.1431 5.87376 11.7854 5.87376Z" fill="#707070"/>
</svg>
